<?xml version="1.0" encoding="utf-8"?>
<!-- Generator: Adobe Illustrator 16.0.0, SVG Export Plug-In . SVG Version: 6.00 Build 0)  -->
<!DOCTYPE svg PUBLIC "-//W3C//DTD SVG 1.1//EN" "http://www.w3.org/Graphics/SVG/1.1/DTD/svg11.dtd">
<svg version="1.1" id="Capa_1" xmlns="http://www.w3.org/2000/svg" xmlns:xlink="http://www.w3.org/1999/xlink" x="0px" y="0px"
	 width="512px" height="512px" viewBox="0 0 512 512" enable-background="new 0 0 512 512" xml:space="preserve">
<g>
	<g>
		<g>
			<path fill="#BD9B60" d="M442.809,236.499c14.993-10.536,24.921-28.062,24.921-47.816c0-32.316-26.137-58.454-58.454-58.454
				c-32.316,0-58.453,26.137-58.453,58.454c0,19.755,9.826,37.281,24.922,47.816c-12.866,4.458-24.617,11.346-34.546,20.261
				c-13.677-11.65-29.784-20.565-47.411-25.833c21.375-12.967,35.761-36.571,35.761-63.417c0-40.928-33.127-74.055-74.054-74.055
				c-40.928,0-74.055,33.229-74.055,74.055c0,26.846,14.284,50.45,35.761,63.417c-17.424,5.268-33.33,14.082-46.904,25.529
				c-9.928-8.712-21.477-15.5-34.14-19.856c14.993-10.536,24.921-28.062,24.921-47.816c0-32.317-26.137-58.454-58.453-58.454
				c-32.317,0-58.454,26.137-58.454,58.454c0,19.754,9.827,37.28,24.921,47.816C28.872,250.479,0,288.672,0,333.55v6.687
				c0,0.202,0.203,0.404,0.405,0.404h123.897c-0.709,5.572-1.114,11.347-1.114,17.121v6.889c0,29.784,24.111,53.895,53.895,53.895
				h157.025c29.783,0,53.895-24.11,53.895-53.895v-6.889c0-5.774-0.406-11.549-1.115-17.121h124.708
				c0.203,0,0.405-0.202,0.405-0.404v-6.687C511.798,288.57,483.026,250.377,442.809,236.499z M367.031,188.581
				c0-23.3,18.944-42.245,42.244-42.245c23.301,0,42.245,18.944,42.245,42.245c0,22.996-18.539,41.738-41.435,42.245
				c-0.304,0-0.506,0-0.811,0c-0.304,0-0.506,0-0.81,0C385.469,230.42,367.031,211.679,367.031,188.581z M197.445,167.509
				c0-31.911,25.934-57.846,57.846-57.846c31.911,0,57.846,25.935,57.846,57.846c0,30.797-24.213,56.022-54.503,57.745
				c-1.114,0-2.229,0-3.343,0c-1.115,0-2.229,0-3.343,0C221.657,223.531,197.445,198.306,197.445,167.509z M60.074,188.581
				c0-23.3,18.944-42.245,42.245-42.245s42.245,18.944,42.245,42.245c0,22.996-18.539,41.738-41.434,42.245
				c-0.304,0-0.506,0-0.811,0c-0.304,0-0.506,0-0.811,0C78.613,230.42,60.074,211.679,60.074,188.581z M127.139,324.331H16.412
				c4.559-43.157,41.029-76.993,85.299-77.296c0.203,0,0.405,0,0.608,0s0.405,0,0.608,0c21.072,0.101,40.32,7.902,55.212,20.565
				C143.55,283.403,132.711,302.854,127.139,324.331z M371.59,364.65c0,20.768-16.918,37.686-37.686,37.686H176.88
				c-20.768,0-37.686-16.918-37.686-37.686v-6.889c0-62.91,50.248-114.374,112.753-116.198c1.114,0.101,2.33,0.101,3.444,0.101
				c1.114,0,2.331,0,3.444-0.101c62.506,1.824,112.754,53.288,112.754,116.198V364.65z M383.646,324.331
				c-5.571-21.376-16.209-40.522-30.696-56.326c14.994-12.967,34.444-20.768,55.719-20.97c0.203,0,0.405,0,0.607,0
				c0.203,0,0.405,0,0.608,0c44.271,0.304,80.741,34.139,85.3,77.296H383.646z"/>
		</g>
	</g>
</g>
</svg>
