<?xml version="1.0" encoding="utf-8"?>
<!-- Generator: Adobe Illustrator 16.0.0, SVG Export Plug-In . SVG Version: 6.00 Build 0)  -->
<!DOCTYPE svg PUBLIC "-//W3C//DTD SVG 1.1//EN" "http://www.w3.org/Graphics/SVG/1.1/DTD/svg11.dtd">
<svg version="1.1" id="Layer_1" xmlns="http://www.w3.org/2000/svg" xmlns:xlink="http://www.w3.org/1999/xlink" x="0px" y="0px"
	 width="26.387px" height="26.449px" viewBox="0 0 26.387 26.449" enable-background="new 0 0 26.387 26.449" xml:space="preserve">
<path id="Forma_1" fill="#BD9B60" d="M18.375,26.248l-5.182-5.185l-5.182,5.185c-0.278,0.258-0.712,0.241-0.97-0.037
	c-0.245-0.263-0.244-0.67,0-0.934l4.587-4.589H0.685C0.306,20.687,0,20.38,0,20.001C0,20,0,20,0,20v-16.4
	c0-0.378,0.307-0.686,0.686-0.686h11.821V0.686C12.507,0.308,12.814,0,13.192,0c0.379,0,0.686,0.307,0.686,0.686v2.23H25.7
	c0.378,0,0.685,0.307,0.685,0.685c0,0,0,0,0,0.001V20c0,0.378-0.306,0.686-0.685,0.686H14.757l4.588,4.589
	c0.277,0.258,0.293,0.692,0.035,0.97s-0.691,0.293-0.969,0.035c-0.013-0.011-0.024-0.022-0.036-0.035V26.248z M1.375,19.317h23.641
	V4.287H1.371L1.375,19.317z M3.475,17.707c-0.379,0-0.686-0.307-0.686-0.686V6.583c0.001-0.375,0.304-0.68,0.68-0.684h16.213
	c0.378,0.015,0.674,0.333,0.659,0.712c-0.014,0.358-0.301,0.646-0.659,0.659H4.154v9.067h18.078v-6.5
	c0-0.378,0.307-0.686,0.686-0.686c0.378,0,0.686,0.307,0.686,0.686v7.181c0,0.379-0.307,0.686-0.686,0.686L3.475,17.707z"/>
</svg>
