<svg xmlns="http://www.w3.org/2000/svg" width="26.386" height="26.448" viewBox="0 0 26.386 26.448">
  <path id="Forma_1" data-name="Forma 1" d="M18.375,26.248l-5.182-5.184L8.011,26.248a.686.686,0,0,1-.969-.97l4.587-4.589H.685A.686.686,0,0,1,0,20V3.6a.686.686,0,0,1,.685-.686H12.507V.687a.685.685,0,1,1,1.371,0v2.23H25.7a.685.685,0,0,1,.685.686V20a.686.686,0,0,1-.685.686H14.757l4.587,4.589a.686.686,0,1,1-.969.97Zm-17-6.93H25.015V4.288H1.371Zm2.1-1.61a.686.686,0,0,1-.685-.686V6.584A.686.686,0,0,1,3.469,5.9H19.682a.686.686,0,0,1,0,1.371H4.154v9.068H22.232v-6.5a.685.685,0,1,1,1.371,0v7.181a.686.686,0,0,1-.685.686Z" transform="translate(0 -0.001)" fill="#080808"/>
</svg>
